HIERARCHY
ROOT SpineBase
{
  OFFSET 0.000000 0.000000 0.000000
  CHANNELS 6 Xposition Yposition Zposition Zrotation Xrotation Yrotation
  JOINT SpineMid
  {
    OFFSET 0.000000 30.903134 0.000000
    CHANNELS 3 Zrotation Xrotation Yrotation
    JOINT SpineShoulder
    {
      OFFSET -0.037693 22.880140 -0.797669
      CHANNELS 3 Zrotation Xrotation Yrotation
      JOINT Neck
      {
        OFFSET -0.001104 7.564108 -0.587602
        CHANNELS 3 Zrotation Xrotation Yrotation
        JOINT Head
        {
          OFFSET -0.566038 12.776677 -0.796852
          CHANNELS 3 Zrotation Xrotation Yrotation
          End Site
          {
            OFFSET 0 0 0
          }
        }
      }
      JOINT ShoulderLeft
      {
        OFFSET -17.462416 -1.598679 0.846955
        CHANNELS 3 Zrotation Xrotation Yrotation
        JOINT ElbowLeft
        {
          OFFSET -5.707229 -28.285544 0.367380
          CHANNELS 3 Zrotation Xrotation Yrotation
          JOINT WristLeft
          {
            OFFSET -0.759076 -23.509710 -6.364752
            CHANNELS 3 Zrotation Xrotation Yrotation
            JOINT HandLeft
            {
              OFFSET 1.146483 -1.651327 -0.662469
              CHANNELS 3 Zrotation Xrotation Yrotation
              JOINT HandTipLeft
              {
                OFFSET 0.922007 -6.525565 -1.239529
                CHANNELS 3 Zrotation Xrotation Yrotation
                End Site
                {
                  OFFSET 0 0 0
                }
              }
              JOINT ThumbLeft
              {
                OFFSET 3.760898 -0.024910 -2.307038
                CHANNELS 3 Zrotation Xrotation Yrotation
                End Site
                {
                  OFFSET 0 0 0
                }
              }
            }
          }
        }
      }
      JOINT ShoulderRight
      {
        OFFSET 16.439035 -2.818696 -1.764929
        CHANNELS 3 Zrotation Xrotation Yrotation
        JOINT ElbowRight
        {
          OFFSET 5.378783 -26.200989 -0.625530
          CHANNELS 3 Zrotation Xrotation Yrotation
          JOINT WristRight
          {
            OFFSET 0.338735 -23.508373 -6.095478
            CHANNELS 3 Zrotation Xrotation Yrotation
            JOINT HandRight
            {
              OFFSET -1.641152 -2.512810 -1.421385
              CHANNELS 3 Zrotation Xrotation Yrotation
              JOINT HandTipRight
              {
                OFFSET -0.252828 -5.337046 -1.127058
                CHANNELS 3 Zrotation Xrotation Yrotation
                End Site
                {
                  OFFSET 0 0 0
                }
              }
              JOINT ThumbRight
              {
                OFFSET -3.741508 0.133787 -0.739532
                CHANNELS 3 Zrotation Xrotation Yrotation
                End Site
                {
                  OFFSET 0 0 0
                }
              }
            }
          }
        }
      }
    }
  }
  JOINT HipLeft
  {
    OFFSET -7.352242 0.855068 -3.093434
    CHANNELS 3 Zrotation Xrotation Yrotation
    JOINT KneeLeft
    {
      OFFSET -8.892117 -29.985237 0.211573
      CHANNELS 3 Zrotation Xrotation Yrotation
      JOINT AnkleLeft
      {
        OFFSET -2.416958 -30.930100 5.044811
        CHANNELS 3 Zrotation Xrotation Yrotation
        JOINT FootLeft
        {
          OFFSET 0.701551 -3.762327 -11.693503
          CHANNELS 3 Zrotation Xrotation Yrotation
          End Site
          {
            OFFSET 0 0 0
          }
        }
      }
    }
  }
  JOINT HipRight
  {
    OFFSET 7.656121 0.570744 -3.842127
    CHANNELS 3 Zrotation Xrotation Yrotation
    JOINT KneeRight
    {
      OFFSET 1.201725 -32.003919 5.837195
      CHANNELS 3 Zrotation Xrotation Yrotation
      JOINT AnkleRight
      {
        OFFSET -2.338887 -30.497251 4.054544
        CHANNELS 3 Zrotation Xrotation Yrotation
        JOINT FootRight
        {
          OFFSET -0.549405 -3.514234 -13.107959
          CHANNELS 3 Zrotation Xrotation Yrotation
          End Site
          {
            OFFSET 0 0 0
          }
        }
      }
    }
  }
}
MOTION
Frames: 9
Frame Time: 0.033333
27.945943 41.981654 375.873367 6.739836 -37.520447 27.958584 0.613531 0.660708 -25.652153 0.621210 0.006724 0.160478 -10.651203 23.110955 2.755063 0.000000 0.000000 0.000000 -10.448068 -13.547457 13.150140 10.295768 4.507169 -14.842116 -42.619624 40.138260 43.165942 11.306774 4.212981 -9.599533 0.000000 0.000000 0.000000 0.000000 0.000000 0.000000 30.648720 12.854613 -19.522272 -53.696283 -6.820022 15.558244 16.824866 18.280618 -5.792185 -27.305322 -4.248721 4.311047 0.000000 0.000000 0.000000 0.000000 0.000000 0.000000 -158.428140 68.833760 120.031556 80.184477 -21.812314 52.309235 -22.378344 -32.680248 44.550991 0.000000 0.000000 0.000000 155.173142 54.948873 -158.375352 50.296809 -65.594501 42.043151 -27.806520 46.904696 23.687508 0.000000 0.000000 0.000000
26.858035 40.939805 373.273240 5.635163 -34.757646 24.989070 0.281028 1.581729 -23.077097 0.729225 -1.537906 0.158713 -9.438911 21.406579 2.313046 0.000000 0.000000 0.000000 -9.353551 -16.605242 12.839888 12.419635 10.081928 -16.314796 -47.187111 29.955991 44.164365 16.556942 2.539454 -11.312319 0.000000 0.000000 0.000000 0.000000 0.000000 0.000000 41.993847 11.754221 -22.879674 -65.417157 -11.307920 13.651780 20.606512 11.711896 -4.394872 -32.626728 -7.169050 3.436368 0.000000 0.000000 0.000000 0.000000 0.000000 0.000000 -142.888339 64.663317 100.371040 84.812597 -18.341302 50.831884 -21.151007 -32.577267 37.027436 0.000000 0.000000 0.000000 154.797410 57.010375 -157.123574 47.448114 -69.077275 40.290127 -22.058337 43.851484 17.962199 0.000000 0.000000 0.000000
25.846982 39.899839 370.467580 4.023568 -31.418003 22.706710 -0.199520 2.086586 -21.320716 0.424758 -2.609324 0.148845 -3.923705 18.584179 0.340310 0.000000 0.000000 0.000000 -5.655188 -16.763154 11.381718 9.607941 12.110677 -14.078509 -50.298272 27.918726 49.751537 17.264186 -1.088126 -15.309569 0.000000 0.000000 0.000000 0.000000 0.000000 0.000000 58.969342 12.766859 -27.973051 -83.713737 -19.224950 6.054596 28.576821 3.028057 -3.800618 -36.418536 -1.474928 5.152238 0.000000 0.000000 0.000000 0.000000 0.000000 0.000000 -128.257447 61.431989 82.078251 89.402661 -14.707518 47.837509 -20.553202 -31.736073 23.421256 0.000000 0.000000 0.000000 155.685505 58.032587 -156.772630 55.353758 -72.932679 48.948970 -15.290933 38.936789 8.769853 0.000000 0.000000 0.000000
25.262254 36.732655 365.528937 2.789482 -24.250875 13.340753 -0.623300 1.482033 -12.542809 0.382132 -3.937940 0.128332 -2.455547 13.803194 -0.135668 0.000000 0.000000 0.000000 -5.191145 -24.121595 11.243551 9.632992 21.494039 -13.585126 -53.192314 27.210431 58.481933 13.820606 -13.925635 -25.986658 0.000000 0.000000 0.000000 0.000000 0.000000 0.000000 71.521235 13.440833 -29.258384 -98.790070 -23.614794 -3.350580 31.792960 1.305329 -4.285163 -36.915443 -0.014998 5.533415 0.000000 0.000000 0.000000 0.000000 0.000000 0.000000 -111.549413 42.093249 52.213450 100.641545 -6.454543 38.692040 -18.429346 -23.929869 2.674516 0.000000 0.000000 0.000000 171.592859 59.681446 -175.157888 94.888569 -74.947956 88.410074 -10.992054 22.302757 2.000215 0.000000 0.000000 0.000000
25.461436 36.244138 365.946283 3.399952 -23.978560 8.097433 -1.096619 1.313297 -7.099904 0.536454 -2.963464 0.113206 -4.870900 13.593269 0.498435 0.000000 0.000000 0.000000 -7.967765 -26.925794 11.469862 12.911372 26.865464 -14.995573 -52.698436 34.196372 65.115690 0.813095 -15.478524 -33.684922 0.000000 0.000000 0.000000 0.000000 0.000000 0.000000 78.779671 14.980040 -32.224845 -107.698389 -24.187331 -9.578495 33.004221 0.309802 -4.576344 -36.309394 1.374395 5.697016 0.000000 0.000000 0.000000 0.000000 0.000000 0.000000 -114.073081 34.228824 50.250135 103.585675 -5.112362 38.445854 -14.036376 -17.432821 -10.315729 0.000000 0.000000 0.000000 -178.763114 55.583439 172.651481 109.364725 -73.767979 102.450259 -8.151221 -0.389687 -2.753845 0.000000 0.000000 0.000000
26.407975 35.504871 366.810539 4.500535 -24.056543 3.470766 -0.988239 1.299271 -2.251619 -0.084253 -2.682078 0.251351 -8.193648 15.111282 1.469944 0.000000 0.000000 0.000000 -11.885872 -28.367075 11.532851 19.303208 34.939863 -18.174963 -44.879071 23.928533 48.657820 1.705754 -14.560842 -29.384705 0.000000 0.000000 0.000000 0.000000 0.000000 0.000000 81.525366 15.398394 -33.615426 -110.650478 -22.780683 -11.455302 31.554169 1.265149 -4.600528 -34.513240 2.466283 5.385058 0.000000 0.000000 0.000000 0.000000 0.000000 0.000000 -116.284727 27.783076 48.311609 104.868262 -4.200199 38.110483 -8.352379 -15.071674 -25.019878 0.000000 0.000000 0.000000 -171.613580 47.765454 159.820307 122.368391 -67.886399 113.515769 -8.538493 -13.722909 -1.751405 0.000000 0.000000 0.000000
27.514262 33.359960 365.554611 5.576856 -21.425167 -5.109986 -0.867781 0.837430 6.399722 -0.186181 -2.144572 0.323381 -14.777686 15.106149 2.972716 0.000000 0.000000 0.000000 -16.690403 -31.751486 10.786540 26.875675 43.321293 -22.235029 -31.851729 8.125767 22.443234 6.127942 -6.524391 -14.728912 0.000000 0.000000 0.000000 0.000000 0.000000 0.000000 81.055769 13.158938 -30.297926 -109.539223 -21.620970 -9.789867 28.596158 3.303597 -4.772081 -28.492202 3.034261 3.918720 0.000000 0.000000 0.000000 0.000000 0.000000 0.000000 -115.870485 13.623297 36.964766 108.762220 -0.661326 31.729867 -7.090519 -23.461076 -36.527944 0.000000 0.000000 0.000000 -164.598751 39.723281 143.097663 134.107139 -58.570353 122.645462 -9.622488 -16.625181 1.345407 0.000000 0.000000 0.000000
29.475398 34.368841 369.694433 8.413274 -25.200121 -9.101175 -0.350061 0.464256 11.233658 -1.160940 0.278903 0.507186 -21.860798 18.865668 5.492422 0.000000 0.000000 0.000000 -22.871279 -30.380131 11.236255 41.727498 47.568962 -32.269687 -29.896085 7.595475 22.781218 -0.213610 -14.158816 -19.579866 0.000000 0.000000 0.000000 0.000000 0.000000 0.000000 81.261472 11.402522 -31.727118 -110.067452 -19.616609 -8.003891 27.843344 2.707842 -4.992910 -26.463820 4.493051 3.983232 0.000000 0.000000 0.000000 0.000000 0.000000 0.000000 -118.175533 14.479217 42.338087 103.354876 -4.013265 37.508182 -6.213201 -23.300595 -37.324575 0.000000 0.000000 0.000000 -163.445252 33.765194 133.656877 125.985729 -58.273647 112.389811 -8.257487 -25.456264 0.867353 0.000000 0.000000 0.000000
30.385607 35.285482 374.440852 10.066774 -29.109290 -8.920111 0.230195 0.318436 11.729284 -1.066391 0.091870 0.630978 -29.653002 24.002993 9.667772 0.000000 0.000000 0.000000 -28.400622 -25.676038 13.129541 55.880512 49.542658 -41.178648 -27.307785 1.749897 18.323560 5.724448 -14.624032 -16.883328 0.000000 0.000000 0.000000 0.000000 0.000000 0.000000 79.301868 9.939946 -34.626536 -108.313330 -16.693886 -4.555848 28.518513 0.407524 -5.433312 -25.983314 7.585674 4.834947 0.000000 0.000000 0.000000 0.000000 0.000000 0.000000 -123.265954 21.531422 52.762694 98.336747 -9.137970 46.339276 -11.007504 -30.997120 -25.711411 0.000000 0.000000 0.000000 -165.961025 28.760164 132.755745 120.142693 -58.199576 106.014812 -7.505666 -28.973020 -0.408652 0.000000 0.000000 0.000000
